<svg xmlns="http://www.w3.org/2000/svg" width="156.27" height="144.812" viewBox="0 0 156.27 144.812"><defs><style>.a{fill:#f3f8fa;}.b{fill:#f5ebcd;}.c{fill:#faf5dc;}.d{fill:#0879d9;}.e{fill:#3a4083;}.f{fill:#2d3272;}.g{fill:#242965;}.h{fill:#ffc1a8;}.i{fill:#f7a181;}.j{fill:#383d79;}.k{fill:#412b4c;}.l{fill:#ff8086;}.m{fill:#e5646e;}</style></defs><g transform="translate(-138.322 -571.378)"><path class="a" d="M1522.435,711.553c6.8-15.392,3.028-22.344,12.211-32.472s30.215-24.089,54.77-19.96,20.863,25.586,32.533,25.95,31.732,4.406,34.678,23.923-6.167,22.056-2.034,31.655,10.543,16.06,8.66,27.392-13.03,28.592-26.092,30.679-36.634-5.451-50.651-2.036-28.844,7.056-38.762,2.036-14.188-11.277-24.171-16.131-17.28-27.75-16.138-41.94S1515.633,726.945,1522.435,711.553Z" transform="translate(-1369 -87)"/><g transform="translate(174.427 578.517)"><g transform="translate(82.159 84.38)"><path class="b" d="M397.011,318.248H390.35a2.22,2.22,0,1,1,0-4.441h6.661a2.22,2.22,0,1,1,0,4.441Z" transform="translate(-388.129 -313.807)"/></g><g transform="translate(82.159 93.262)"><path class="b" d="M397.011,351.28H390.35a2.221,2.221,0,1,1,0-4.441h6.661a2.221,2.221,0,1,1,0,4.441Z" transform="translate(-388.129 -346.839)"/></g><g transform="translate(82.159 102.144)"><path class="b" d="M397.011,384.312H390.35a2.221,2.221,0,1,1,0-4.441h6.661a2.221,2.221,0,1,1,0,4.441Z" transform="translate(-388.129 -379.871)"/></g><g transform="translate(82.159 111.026)"><path class="b" d="M397.011,417.344H390.35a2.221,2.221,0,0,1,0-4.441h6.661a2.221,2.221,0,1,1,0,4.441Z" transform="translate(-388.129 -412.903)"/></g><path class="c" d="M383.831,272.516l-1.581,4.441v6.661l1.581,2.22,4.441-2.22v-6.661A4.441,4.441,0,0,0,383.831,272.516Z" transform="translate(-301.672 -199.239)"/><path class="b" d="M371.613,276.957v6.661l4.441,2.221V272.516A4.441,4.441,0,0,0,371.613,276.957Z" transform="translate(-293.895 -199.239)"/><path class="d" d="M160.228,325.494l-20.317-8.7a6.661,6.661,0,0,1-4.039-6.123V297.29H113.667v13.379a6.662,6.662,0,0,1-4.039,6.124l-20.317,8.7A11.1,11.1,0,0,0,82.58,335.7v14.882a4.441,4.441,0,0,0,4.441,4.441h75.5a4.441,4.441,0,0,0,4.441-4.441V335.7A11.1,11.1,0,0,0,160.228,325.494Z" transform="translate(-82.58 -217.351)"/><path class="e" d="M232.4,410.836l-12.767-19.043-15.931.163,17.632,26.3a2.221,2.221,0,0,0,3.081.608l7.378-4.946A2.22,2.22,0,0,0,232.4,410.836Z" transform="translate(-171.132 -286.444)"/><path class="e" d="M209.345,305.548H183.662A6.662,6.662,0,0,0,177,312.209v13.323c0,2.453,4.538,3.261,16.8,3.261,13.225,0,22.205-5.01,22.205-9.514v-7.071A6.662,6.662,0,0,0,209.345,305.548Z" transform="translate(-151.611 -223.389)"/><path class="f" d="M168.007,313.623v-8.075h-4.441a6.662,6.662,0,0,0-6.645,6.189l-.016,4.5v9.291c0,2.453,9.942,4.441,22.205,4.441s22.205-1.988,22.205-4.441V319.28Zm11.1,11.91c-2.452,0-4.807-.081-7.009-.229a4.421,4.421,0,0,1-4.094-4.428v-2.749L198.4,323.29C194.577,324.629,187.373,325.533,179.109,325.533Z" transform="translate(-136.919 -223.389)"/><path class="g" d="M186.044,113.449,130.275,94.866a30.952,30.952,0,0,0-6.4,18.9v11.1h62.175v-11.1Q186.046,113.608,186.044,113.449Z" transform="translate(-112.768 -69.357)"/><path class="h" d="M210.835,147.673H207.5a4.441,4.441,0,0,1-4.441-4.441v-2.221a8.882,8.882,0,0,0-8.882-8.882H171.976a8.842,8.842,0,0,0-4.441,1.188l-5.2,22.26c0,13.49,7.255,27.247,20.745,27.247a24.842,24.842,0,0,0,4.479-.034A24.433,24.433,0,0,0,207.5,158.776h3.014a5.769,5.769,0,0,0,5.839-4.979A5.552,5.552,0,0,0,210.835,147.673Z" transform="translate(-140.888 -96.601)"/><path class="i" d="M133.377,162V136.545a8.917,8.917,0,0,0-4.441,7.695v2.221A4.441,4.441,0,0,1,124.5,150.9h-3.014a5.769,5.769,0,0,0-5.839,4.978A5.552,5.552,0,0,0,121.164,162H124.5a24.425,24.425,0,0,0,24.425,24.425,24.909,24.909,0,0,0,4.479-.41A24.466,24.466,0,0,1,133.377,162Z" transform="translate(-106.731 -99.829)"/><circle class="g" cx="17.764" cy="17.764" r="17.764" transform="translate(24.426 0)"/><path class="j" d="M172.372,49.548a31.026,31.026,0,0,0-24.683,12.185,73.082,73.082,0,0,0,49.108,18.9c2.242,0,4.469-.122,6.66-.319A31.086,31.086,0,0,0,172.372,49.548Z" transform="translate(-130.182 -36.225)"/><g transform="translate(28.867 51.072)"><path class="k" d="M192.157,196.6a2.22,2.22,0,0,1-2.221-2.221v-2.22a2.22,2.22,0,1,1,4.441,0v2.22A2.22,2.22,0,0,1,192.157,196.6Z" transform="translate(-189.936 -189.936)"/></g><g transform="translate(51.072 51.072)"><path class="k" d="M274.737,196.6a2.22,2.22,0,0,1-2.221-2.221v-2.22a2.221,2.221,0,1,1,4.441,0v2.22A2.22,2.22,0,0,1,274.737,196.6Z" transform="translate(-272.516 -189.936)"/></g><path class="l" d="M384.251,350.567v-36.76H379.81l-3.06,47.713,3.06,5.579a8.856,8.856,0,0,0,4.441-16.532Z" transform="translate(-297.65 -229.427)"/><path class="m" d="M363.979,313.806h-4.441v36.76a8.857,8.857,0,0,0,2.311,16.285,9.4,9.4,0,0,0,2.13.247Z" transform="translate(-281.82 -229.426)"/></g></g></svg>